<?xml version="1.0" standalone="no"?>
<!DOCTYPE svg PUBLIC "-//W3C//DTD SVG 20010904//EN"
 "http://www.w3.org/TR/2001/REC-SVG-20010904/DTD/svg10.dtd">
<svg version="1.0" xmlns="http://www.w3.org/2000/svg"
 width="822.000000pt" height="822.000000pt" viewBox="0 0 822.000000 822.000000"
 preserveAspectRatio="xMidYMid meet">
<metadata>
Created by potrace 1.11, written by Peter Selinger 2001-2013
</metadata>
<g transform="translate(0.000000,822.000000) scale(0.100000,-0.100000)"
fill="#000000" stroke="none">
<path d="M2698 8195 c-53 -26 -90 -78 -121 -168 -14 -40 -62 -175 -107 -302
-86 -241 -166 -468 -255 -720 -184 -526 -268 -762 -275 -780 -5 -11 -25 -65
-44 -120 -102 -294 -169 -483 -182 -512 -8 -17 -14 -34 -14 -37 0 -6 -70 -205
-260 -741 -107 -300 -190 -534 -200 -565 -5 -14 -27 -77 -50 -140 -23 -63 -50
-140 -60 -170 -10 -30 -35 -100 -55 -155 -20 -55 -43 -118 -50 -140 -7 -22
-36 -105 -64 -185 -70 -196 -69 -261 8 -339 64 -66 114 -73 287 -41 60 11 123
23 139 25 17 3 41 8 55 10 38 8 70 14 130 25 30 6 66 12 80 15 14 3 41 8 60
11 19 3 42 7 50 9 28 7 100 16 100 12 0 -2 -13 -69 -29 -148 -16 -79 -32 -160
-35 -179 -3 -19 -25 -138 -50 -265 -25 -126 -48 -243 -51 -260 -11 -62 -17
-94 -46 -240 -17 -82 -32 -166 -35 -185 -2 -19 -6 -42 -9 -50 -54 -183 17
-324 171 -337 53 -4 76 1 234 57 430 151 522 182 526 177 2 -1 4 -356 4 -787
1 -525 5 -797 12 -822 15 -52 60 -102 115 -128 75 -35 136 -25 253 42 258 149
368 212 395 229 17 11 37 22 45 26 14 7 271 154 465 268 109 63 536 310 585
338 19 10 123 70 230 132 187 108 240 138 522 301 70 41 142 82 160 92 18 11
87 51 153 89 66 39 140 81 165 95 25 14 99 57 165 95 111 65 542 314 610 353
17 9 104 60 195 112 91 53 264 153 385 223 259 149 276 162 300 212 37 77 29
163 -22 229 -19 26 -173 122 -350 221 -133 74 -233 135 -233 142 0 4 9 16 20
26 26 23 50 103 45 151 -7 82 -26 103 -316 355 -154 132 -279 243 -279 246 0
2 14 16 31 31 63 52 87 160 54 239 -13 30 -73 114 -95 133 -4 3 -116 133 -250
290 -133 157 -264 310 -290 340 -26 30 -184 215 -350 410 -167 195 -317 371
-334 391 -17 19 -52 60 -77 90 -43 50 -162 189 -213 249 -11 14 -46 54 -76 90
-30 36 -57 67 -60 70 -3 3 -111 129 -240 280 -129 151 -237 277 -240 280 -4 4
-103 121 -185 219 -11 13 -25 29 -30 35 -6 6 -35 40 -65 76 -30 36 -57 67 -60
70 -7 6 -348 406 -375 439 -11 14 -36 43 -56 65 -20 23 -45 52 -57 66 -11 14
-31 36 -43 50 -12 14 -53 63 -92 110 -106 127 -161 178 -207 190 -56 15 -114
10 -162 -15z"/>
</g>
</svg>
