<svg xmlns="http://www.w3.org/2000/svg" viewBox="0 0 642.02 821.83"><defs><style>.cls-1{fill:#d35e5d;}.cls-2{fill:#a55555;}.cls-3{fill:#894d4d;}</style></defs><title>logo</title><g id="Layer_2" data-name="Layer 2"><g id="Layer_1-2" data-name="Layer 1"><path class="cls-1" d="M204.92,7.41,531.33,389.5A21.13,21.13,0,0,1,519.11,424L25,515.64A21.13,21.13,0,0,1,1.24,487.81L168.93,14.09A21.13,21.13,0,0,1,204.92,7.41Z"/><path class="cls-2" d="M198.56,139.3l380,328.89a21.14,21.14,0,0,1-6.91,35.95L96.79,668.74a21.13,21.13,0,0,1-27.67-24L164,151.29A21.13,21.13,0,0,1,198.56,139.3Z"/><path class="cls-3" d="M196.26,279.84l435.2,251.27a21.13,21.13,0,0,1,0,36.6L196.26,819a21.13,21.13,0,0,1-31.7-18.3V298.15A21.14,21.14,0,0,1,196.26,279.84Z"/></g></g></svg>